<svg width="1737" height="273" viewBox="0 0 1737 273" fill="none" xmlns="http://www.w3.org/2000/svg">
<path d="M408.865 260.821V68.261C408.865 61.4515 412.632 57.7343 419.531 57.7343H472.228C479.128 57.7343 482.894 61.4515 482.894 68.261V71.3598H484.464C493.877 60.5272 499.833 54.6421 529.945 54.6421H551.587C587.662 54.6421 609.621 76.314 609.621 105.726V167.643C609.621 197.056 587.662 218.721 557.867 218.721H518.969C504.536 218.721 491.364 213.461 485.091 206.645H484.148V260.821C484.148 267.631 480.381 271.348 473.482 271.348H419.531C412.632 271.348 408.865 267.631 408.865 260.821ZM534.021 165.469V107.888C534.021 97.3608 528.375 91.7882 517.709 91.7882H500.453C489.787 91.7882 484.141 97.3608 484.141 107.888V165.469C484.141 175.995 489.787 181.568 500.453 181.568H517.709C528.375 181.568 534.021 175.995 534.021 165.469Z" fill="#FCFBFA"/>
<path d="M620.604 170.423C620.604 143.178 642.246 122.131 672.991 122.131H737.924C745.14 122.131 750.47 116.871 750.47 109.749V106.651C750.47 97.0549 745.14 91.7882 735.41 91.7882H717.845C708.122 91.7882 702.786 95.5054 702.786 103.552V104.789C702.786 108.812 700.589 110.98 696.513 110.98H640.676C633.776 110.98 630.01 108.812 630.01 101.69C630.01 75.3763 651.025 54.6354 680.827 54.6354H774.928C804.73 54.6354 825.745 75.3763 825.745 104.789V205.095C825.745 211.905 821.979 215.622 815.079 215.622H772.422C765.522 215.622 761.756 211.905 761.756 205.714H760.812C754.849 211.905 740.74 218.714 718.155 218.714H672.357C642.246 218.714 620.604 197.355 620.604 170.423ZM750.463 171.66V162.988C750.463 157.728 747.64 154.942 742.31 154.942H708.122C700.906 154.942 695.576 160.209 695.576 167.324C695.576 174.439 700.912 179.706 708.122 179.706H742.31C747.646 179.706 750.463 176.92 750.463 171.66Z" fill="#FCFBFA"/>
<path d="M843.317 205.095V68.261C843.317 61.4515 847.084 57.7343 853.983 57.7343H900.408C907.307 57.7343 911.074 61.4515 911.074 68.261V70.4288C923.62 58.3527 932.089 54.6421 945.895 54.6421H984.793C1008.95 54.6421 1025.57 71.0473 1025.57 94.887V100.46C1025.57 107.269 1021.8 110.986 1014.9 110.986H956.561C952.485 110.986 950.288 108.819 950.288 104.795V104.483C950.288 98.2918 946.838 94.887 939.939 94.887H930.843C922.056 94.887 918.607 98.2918 918.607 110.674V205.095C918.607 211.905 914.84 215.622 907.94 215.622H853.99C847.091 215.622 843.324 211.905 843.324 205.095H843.317Z" fill="#FCFBFA"/>
<path d="M1025.87 170.423C1025.87 143.178 1047.52 122.131 1078.26 122.131H1143.19C1150.41 122.131 1155.74 116.871 1155.74 109.749V106.651C1155.74 97.0549 1150.41 91.7882 1140.68 91.7882H1123.12C1113.39 91.7882 1108.06 95.5054 1108.06 103.552V104.789C1108.06 108.812 1105.86 110.98 1101.78 110.98H1045.95C1039.05 110.98 1035.28 108.812 1035.28 101.69C1035.28 75.3763 1056.3 54.6354 1086.1 54.6354H1180.2C1210 54.6354 1231.02 75.3763 1231.02 104.789V205.095C1231.02 211.905 1227.25 215.622 1220.35 215.622H1177.69C1170.79 215.622 1167.03 211.905 1167.03 205.714H1166.08C1160.12 211.905 1146.01 218.714 1123.43 218.714H1077.63C1047.52 218.714 1025.87 197.355 1025.87 170.423H1025.87ZM1155.74 171.66V162.988C1155.74 157.728 1152.92 154.942 1147.59 154.942H1113.4C1106.18 154.942 1100.85 160.209 1100.85 167.324C1100.85 174.439 1106.18 179.706 1113.4 179.706H1147.59C1152.92 179.706 1155.74 176.92 1155.74 171.66Z" fill="#FCFBFA"/>
<path d="M1248.59 205.095V12.5351C1248.59 5.72562 1252.36 2.00835 1259.26 2.00835H1313.21C1320.11 2.00835 1323.88 5.72562 1323.88 12.5351V205.095C1323.88 211.905 1320.11 215.622 1313.21 215.622H1259.26C1252.36 215.622 1248.59 211.905 1248.59 205.095Z" fill="#FCFBFA"/>
<path d="M1341.44 205.095V12.5351C1341.44 5.72562 1345.2 2.00835 1352.1 2.00835H1406.05C1412.95 2.00835 1416.72 5.72562 1416.72 12.5351V205.095C1416.72 211.905 1412.95 215.622 1406.05 215.622H1352.1C1345.2 215.622 1341.44 211.905 1341.44 205.095Z" fill="#FCFBFA"/>
<path d="M1434.28 167.942V107.575C1434.28 74.452 1454.36 54.6354 1487.92 54.6354H1586.42C1623.12 54.6354 1643.19 74.4453 1643.19 110.667V136.981C1643.19 144.103 1637.86 149.363 1630.65 149.363H1524.31C1514.9 149.363 1509.57 154.629 1509.57 163.913V167.011C1509.57 176.301 1514.9 181.561 1524.31 181.561H1553.17C1562.58 181.561 1567.91 176.301 1567.91 169.179V167.324C1567.91 160.515 1571.68 156.797 1578.58 156.797H1632.53C1639.43 156.797 1643.19 160.515 1643.19 167.324V167.942C1643.19 197.042 1621.23 218.714 1591.75 218.714H1485.73C1455.62 218.714 1434.28 197.661 1434.28 167.942ZM1515.84 116.552H1561.64C1565.71 116.552 1567.91 114.384 1567.91 110.361V106.026C1567.91 97.0482 1562.58 91.7815 1553.48 91.7815H1523.99C1514.9 91.7815 1509.56 97.0416 1509.56 106.026V110.361C1509.56 114.384 1511.76 116.552 1515.83 116.552H1515.84Z" fill="#FCFBFA"/>
<path d="M1660.76 205.095V12.5351C1660.76 5.72562 1664.52 2.00835 1671.42 2.00835H1725.37C1732.27 2.00835 1736.04 5.72562 1736.04 12.5351V205.095C1736.04 211.905 1732.27 215.622 1725.37 215.622H1671.42C1664.52 215.622 1660.76 211.905 1660.76 205.095Z" fill="#FCFBFA"/>
<path d="M270.322 106.744H195.65C195.849 107.919 196.013 109.112 196.176 110.305H77.391C77.1732 111.878 76.9555 113.468 76.774 115.041H1.64868C1.28575 117.391 0.959125 119.759 0.705078 122.163H76.0844C75.9574 123.735 75.8667 125.326 75.776 126.898H197.791C197.846 128.073 197.9 129.266 197.936 130.459H273.225V126.663C272.735 119.867 271.773 113.215 270.322 106.744Z" fill="#FCFBFA"/>
<path d="M197.791 145.859H75.776C75.8485 147.45 75.9574 149.022 76.0844 150.595H0.705078C0.959125 152.981 1.2676 155.349 1.64868 157.717H76.774C76.9555 159.307 77.1551 160.88 77.391 162.452H196.176C196.013 163.645 195.831 164.82 195.65 166.013H270.322C271.773 159.542 272.735 152.89 273.225 146.094V142.298H197.936C197.9 143.491 197.846 144.666 197.791 145.859Z" fill="#FCFBFA"/>
<path d="M192.42 181.431H81.1113C81.5105 183.022 81.946 184.594 82.3815 186.167H9.39746C10.3411 188.571 11.3572 190.939 12.4279 193.288H84.5409C85.0672 194.879 85.5934 196.452 86.1559 198.024H187.339C186.904 199.217 186.468 200.392 186.015 201.585H256.912C261.031 194.084 264.443 186.149 267.092 177.87H193.255C192.983 179.063 192.692 180.238 192.402 181.431H192.42Z" fill="#FCFBFA"/>
<path d="M179.336 217.003H94.2124C94.9927 218.594 95.8093 220.184 96.644 221.739H30.1562C32.1342 224.179 34.1847 226.547 36.3078 228.861H100.6C101.543 230.451 102.505 232.042 103.485 233.596H170.082C169.338 234.789 168.576 235.982 167.795 237.157H228.894C236.678 230.09 243.628 222.118 249.617 213.442H181.042C180.48 214.635 179.935 215.828 179.354 217.003H179.336Z" fill="#FCFBFA"/>
<path d="M156.4 252.557H117.15C118.474 254.166 119.817 255.738 121.196 257.293H73.7075C92.4707 267.017 113.774 272.585 136.366 272.639C136.512 272.639 136.639 272.639 136.766 272.639C136.893 272.639 137.038 272.639 137.165 272.639C165.582 272.548 191.966 263.836 213.796 248.978H159.231C158.287 250.171 157.343 251.364 156.382 252.539L156.4 252.557Z" fill="#FCFBFA"/>
<path d="M117.15 20.2002H156.4C157.362 21.3751 158.306 22.568 159.249 23.761H213.815C191.967 8.90316 165.6 0.190901 137.183 0.100525C137.038 0.100525 136.911 0.100525 136.784 0.100525C136.657 0.100525 136.512 0.100525 136.385 0.100525C113.775 0.172826 92.4893 5.72192 73.7261 15.4464H121.215C119.836 17.0009 118.493 18.5915 117.168 20.1821L117.15 20.2002Z" fill="#FCFBFA"/>
<path d="M94.213 55.7723H179.337C179.918 56.9471 180.48 58.1401 181.024 59.3331H249.599C243.611 50.657 236.661 42.6858 228.876 35.6184H167.778C168.558 36.7933 169.32 37.9862 170.064 39.1792H103.468C102.488 40.7517 101.526 42.3243 100.582 43.9149H36.2902C34.149 46.2105 32.0985 48.5783 30.1387 51.0365H96.6264C95.7917 52.6091 94.9933 54.1816 94.1948 55.7723H94.213Z" fill="#FCFBFA"/>
<path d="M81.1293 91.3261H192.438C192.729 92.501 193.019 93.6939 193.291 94.8869H267.128C264.479 86.6084 261.067 78.6734 256.948 71.1722H186.051C186.504 72.3471 186.94 73.5401 187.375 74.733H86.1921C85.6296 76.3056 85.0852 77.8781 84.5771 79.4687H12.464C11.3934 81.8004 10.3772 84.1683 9.43359 86.5904H82.4177C81.9822 88.1629 81.5467 89.7354 81.1474 91.3261H81.1293Z" fill="#FCFBFA"/>
</svg>
