<svg width="972" height="214" viewBox="0 0 972 214" fill="none" xmlns="http://www.w3.org/2000/svg">
<path d="M915.526 7.66871C915.526 5.432 916.245 3.59471 917.683 2.15683C919.121 0.718944 920.958 0 923.195 0H963.935C966.172 0 968.009 0.718944 969.447 2.15683C970.885 3.59471 971.604 5.432 971.604 7.66871V160.084C971.604 162.321 970.885 164.158 969.447 165.596C968.009 167.034 966.172 167.753 963.935 167.753H923.195C920.958 167.753 919.121 167.034 917.683 165.596C916.245 164.158 915.526 162.321 915.526 160.084V7.66871Z" fill="black"/>
<path d="M845.456 81.9592C845.456 79.2432 844.418 76.9266 842.341 75.0094C840.423 72.9325 838.107 71.894 835.391 71.894H826.284C823.568 71.894 821.172 72.9325 819.095 75.0094C817.178 76.9266 816.219 79.2432 816.219 81.9592V87.2314C816.219 89.7876 817.497 91.0658 820.053 91.0658H841.622C844.178 91.0658 845.456 89.7876 845.456 87.2314V81.9592ZM903.451 106.882C903.451 109.598 902.492 111.915 900.575 113.832C898.817 115.59 896.581 116.468 893.865 116.468H826.284C823.568 116.468 821.172 117.507 819.095 119.584C817.178 121.501 816.219 123.818 816.219 126.534V129.889C816.219 132.605 817.178 135.001 819.095 137.078C821.172 138.995 823.568 139.954 826.284 139.954H835.391C838.107 139.954 840.423 138.995 842.341 137.078C844.418 135.001 845.456 132.605 845.456 129.889V126.054C845.456 123.498 846.734 122.22 849.29 122.22H899.616C902.172 122.22 903.451 123.498 903.451 126.054V130.608C903.451 135.88 902.412 140.832 900.335 145.466C898.418 150.099 895.702 154.173 892.187 157.688C888.672 161.043 884.598 163.759 879.965 165.836C875.332 167.753 870.379 168.711 865.107 168.711H795.609C790.337 168.711 785.385 167.753 780.751 165.836C776.118 163.759 772.044 161.043 768.529 157.688C765.014 154.173 762.219 150.099 760.142 145.466C758.224 140.832 757.266 135.88 757.266 130.608V81.4799C757.266 76.2076 758.224 71.2549 760.142 66.6218C762.219 61.9886 765.014 57.9146 768.529 54.3998C772.044 50.8849 776.118 48.1689 780.751 46.2517C785.385 44.1748 790.337 43.1364 795.609 43.1364H865.107C870.379 43.1364 875.332 44.1748 879.965 46.2517C884.598 48.1689 888.672 50.8849 892.187 54.3998C895.702 57.9146 898.418 61.9886 900.335 66.6218C902.412 71.2549 903.451 76.2076 903.451 81.4799V106.882Z" fill="black"/>
<path d="M689.219 7.66871C689.219 5.432 689.938 3.59471 691.376 2.15683C692.814 0.718944 694.651 0 696.888 0H737.628C739.865 0 741.702 0.718944 743.14 2.15683C744.578 3.59471 745.297 5.432 745.297 7.66871V160.084C745.297 162.321 744.578 164.158 743.14 165.596C741.702 167.034 739.865 167.753 737.628 167.753H696.888C694.651 167.753 692.814 167.034 691.376 165.596C689.938 164.158 689.219 162.321 689.219 160.084V7.66871Z" fill="black"/>
<path d="M618.776 7.66871C618.776 5.432 619.495 3.59471 620.933 2.15683C622.371 0.718944 624.208 0 626.445 0H667.185C669.421 0 671.259 0.718944 672.696 2.15683C674.134 3.59471 674.853 5.432 674.853 7.66871V160.084C674.853 162.321 674.134 164.158 672.696 165.596C671.259 167.034 669.421 167.753 667.185 167.753H626.445C624.208 167.753 622.371 167.034 620.933 165.596C619.495 164.158 618.776 162.321 618.776 160.084V7.66871Z" fill="black"/>
<path d="M541.628 139.954C544.185 139.954 545.463 138.676 545.463 136.119V124.616C545.463 122.06 544.185 120.782 541.628 120.782H522.457C519.741 120.782 517.424 121.741 515.507 123.658C513.749 125.415 512.871 127.652 512.871 130.368C512.871 133.084 513.749 135.4 515.507 137.318C517.424 139.075 519.741 139.954 522.457 139.954H541.628ZM545.463 81.9592C545.463 79.2432 544.424 76.9266 542.347 75.0094C540.43 72.9325 538.114 71.894 535.398 71.894H527.729C525.013 71.894 522.616 72.9325 520.539 75.0094C518.622 76.9266 517.664 79.2432 517.664 81.9592V82.9178C517.664 85.474 516.386 86.7521 513.829 86.7521H465.9C463.344 86.7521 462.066 85.474 462.066 82.9178V81.2402C462.066 75.968 463.024 71.0153 464.941 66.3821C467.018 61.7489 469.814 57.7548 473.329 54.3998C476.844 50.8849 480.918 48.1689 485.551 46.2517C490.184 44.1748 495.137 43.1364 500.409 43.1364H566.072C571.345 43.1364 576.297 44.1748 580.931 46.2517C585.564 48.1689 589.638 50.8849 593.153 54.3998C596.667 57.7548 599.383 61.7489 601.301 66.3821C603.378 71.0153 604.416 75.968 604.416 81.2402V160.084C604.416 162.321 603.697 164.158 602.259 165.596C600.821 167.034 598.984 167.753 596.747 167.753H560.8C557.605 167.753 555.368 166.395 554.09 163.679C553.611 162.56 552.972 162.001 552.173 162.001C551.374 162.001 550.655 162.241 550.016 162.72C546.821 164.957 543.306 166.714 539.472 167.992C535.637 169.43 531.563 170.149 527.25 170.149H492.261C487.149 170.149 482.276 169.191 477.643 167.273C473.169 165.197 469.255 162.481 465.9 159.126C462.545 155.77 459.829 151.856 457.752 147.383C455.835 142.75 454.876 137.877 454.876 132.764C454.876 127.652 455.835 122.859 457.752 118.386C459.829 113.752 462.545 109.758 465.9 106.403C469.255 103.048 473.169 100.412 477.643 98.4948C482.276 96.4179 487.149 95.3794 492.261 95.3794H535.877C538.593 95.3794 540.83 94.5007 542.587 92.7433C544.504 90.8261 545.463 88.5095 545.463 85.7935V81.9592Z" fill="black"/>
<path d="M394.399 82.4385C394.399 80.2018 393.6 78.2846 392.003 76.6869C390.405 75.0893 388.488 74.2905 386.251 74.2905C384.014 74.2905 382.097 75.0893 380.5 76.6869C378.902 78.2846 378.103 80.2018 378.103 82.4385V160.084C378.103 162.321 377.384 164.158 375.946 165.596C374.508 167.034 372.671 167.753 370.434 167.753H329.694C327.458 167.753 325.62 167.034 324.182 165.596C322.745 164.158 322.026 162.321 322.026 160.084V53.2015C322.026 50.9648 322.745 49.1275 324.182 47.6897C325.62 46.2518 327.458 45.5328 329.694 45.5328H365.641C368.677 45.5328 370.914 46.8908 372.351 49.6068C372.831 50.7252 373.47 51.2843 374.269 51.2843C375.067 51.2843 375.786 51.0447 376.425 50.5654C379.621 48.3287 383.136 46.5713 386.97 45.2932C390.804 43.8553 394.878 43.1364 399.192 43.1364H420.76C425.074 43.1364 429.068 43.9352 432.743 45.5328C436.577 47.1305 439.932 49.3672 442.808 52.243C445.683 55.1187 447.92 58.4738 449.518 62.3081C451.115 65.9827 451.914 69.9768 451.914 74.2905V87.7107C451.914 89.9474 451.195 91.7847 449.757 93.2226C448.32 94.6604 446.482 95.3794 444.246 95.3794H402.068C399.831 95.3794 397.994 94.6604 396.556 93.2226C395.118 91.7847 394.399 89.9474 394.399 87.7107V82.4385Z" fill="black"/>
<path d="M244.878 139.954C247.434 139.954 248.712 138.676 248.712 136.119V124.616C248.712 122.06 247.434 120.782 244.878 120.782H225.706C222.99 120.782 220.674 121.741 218.757 123.658C216.999 125.415 216.12 127.652 216.12 130.368C216.12 133.084 216.999 135.4 218.757 137.318C220.674 139.075 222.99 139.954 225.706 139.954H244.878ZM248.712 81.9592C248.712 79.2432 247.674 76.9266 245.597 75.0094C243.68 72.9325 241.363 71.894 238.647 71.894H230.979C228.263 71.894 225.866 72.9325 223.789 75.0094C221.872 76.9266 220.913 79.2432 220.913 81.9592V82.9178C220.913 85.474 219.635 86.7521 217.079 86.7521H169.15C166.593 86.7521 165.315 85.474 165.315 82.9178V81.2402C165.315 75.968 166.274 71.0153 168.191 66.3821C170.268 61.7489 173.064 57.7548 176.579 54.3998C180.093 50.8849 184.168 48.1689 188.801 46.2517C193.434 44.1748 198.387 43.1364 203.659 43.1364H269.322C274.594 43.1364 279.547 44.1748 284.18 46.2517C288.813 48.1689 292.887 50.8849 296.402 54.3998C299.917 57.7548 302.633 61.7489 304.55 66.3821C306.627 71.0153 307.666 75.968 307.666 81.2402V160.084C307.666 162.321 306.947 164.158 305.509 165.596C304.071 167.034 302.234 167.753 299.997 167.753H264.05C260.855 167.753 258.618 166.395 257.34 163.679C256.86 162.56 256.221 162.001 255.423 162.001C254.624 162.001 253.905 162.241 253.266 162.72C250.07 164.957 246.556 166.714 242.721 167.992C238.887 169.43 234.813 170.149 230.499 170.149H195.511C190.398 170.149 185.526 169.191 180.892 167.273C176.419 165.197 172.505 162.481 169.15 159.126C165.795 155.77 163.079 151.856 161.002 147.383C159.084 142.75 158.126 137.877 158.126 132.764C158.126 127.652 159.084 122.859 161.002 118.386C163.079 113.752 165.795 109.758 169.15 106.403C172.505 103.048 176.419 100.412 180.892 98.4948C185.526 96.4179 190.398 95.3794 195.511 95.3794H239.127C241.843 95.3794 244.079 94.5007 245.837 92.7433C247.754 90.8261 248.712 88.5095 248.712 85.7935V81.9592Z" fill="black"/>
<path d="M111.196 43.1364C116.468 43.1364 121.421 44.1748 126.054 46.2517C130.687 48.1689 134.762 50.8849 138.276 54.3998C141.791 57.9146 144.507 61.9886 146.424 66.6218C148.501 71.2549 149.54 76.2076 149.54 81.4799V130.368C149.54 135.64 148.501 140.593 146.424 145.226C144.507 149.859 141.791 153.933 138.276 157.448C134.762 160.963 130.687 163.759 126.054 165.836C121.421 167.753 116.468 168.711 111.196 168.711H81.9593C77.6456 168.711 73.5716 168.072 69.7373 166.794C66.0627 165.356 62.6278 163.519 59.4325 161.282C58.7934 160.803 58.1543 160.563 57.5153 160.563C56.5567 160.563 56.0774 161.123 56.0774 162.241V205.617C56.0774 207.854 55.3585 209.691 53.9206 211.129C52.4827 212.567 50.6454 213.286 48.4087 213.286H7.66872C5.43202 213.286 3.59472 212.567 2.15684 211.129C0.718958 209.691 0 207.854 0 205.617V53.2015C0 50.9648 0.718958 49.1275 2.15684 47.6897C3.59472 46.2518 5.43202 45.5328 7.66872 45.5328H43.6157C46.6513 45.5328 48.888 46.8908 50.3259 49.6068C50.8052 50.7252 51.4442 51.2843 52.243 51.2843C53.0419 51.2843 53.7608 51.0447 54.3999 50.5654C57.5952 48.3287 61.11 46.5713 64.9444 45.2932C68.7787 43.8553 72.8527 43.1364 77.1663 43.1364H111.196ZM56.0774 128.93C56.0774 131.966 57.1159 134.602 59.1928 136.838C61.4295 138.915 64.0656 139.954 67.1012 139.954H79.5628C82.5983 139.954 85.1546 138.915 87.2315 136.838C89.4682 134.602 90.5866 131.966 90.5866 128.93V82.9178C90.5866 79.8822 89.4682 77.326 87.2315 75.249C85.1546 73.0123 82.5983 71.894 79.5628 71.894H67.1012C64.0656 71.894 61.4295 73.0123 59.1928 75.249C57.1159 77.326 56.0774 79.8822 56.0774 82.9178V128.93Z" fill="black"/>
</svg>
